<svg width="328" height="121" viewBox="0 0 328 121" fill="none" xmlns="http://www.w3.org/2000/svg">
<rect x="2" y="2" width="132" height="96.0656" rx="19" fill="white" stroke="#24ABF6" stroke-width="4"/>
<path d="M34.1992 101L29.6 96H69.45L64.7171 101H34.1992Z" fill="white"/>
<path d="M34.1992 101L29.6 96H69.45L64.7171 101H34.1992Z" stroke="#24ABF6" style="mix-blend-mode:lighten"/>
<path d="M67.4319 101.25L49.5 118.245L31.5681 101.25H67.4319Z" fill="white" stroke="#24ABF6" stroke-width="4"/>
<path d="M32.5 99L37 103.5H62L66.5 99H32.5Z" fill="white" stroke="white" stroke-width="0.2"/>
<path d="M75.399 71H61.308C60.82 71 60.576 70.756 60.576 70.268V67.157C60.576 66.669 60.82 66.425 61.308 66.425H65.395V36.047H65.334L53.744 64.839C53.256 66.059 52.3613 66.669 51.06 66.669C49.7587 66.669 48.864 66.059 48.376 64.839L36.786 36.047H36.664V66.425H40.751C41.2797 66.425 41.544 66.669 41.544 67.157V70.268C41.544 70.756 41.2797 71 40.751 71H26.721C26.1923 71 25.928 70.756 25.928 70.268V67.157C25.928 66.669 26.1923 66.425 26.721 66.425H31.357V31.777H26.721C26.1923 31.777 25.928 31.533 25.928 31.045V27.934C25.928 27.446 26.1923 27.202 26.721 27.202H36.115C37.4977 27.202 38.4533 27.8933 38.982 29.276L48.071 51.236L50.938 58.922H51.182C52.3207 55.75 53.256 53.2287 53.988 51.358L63.138 29.276C63.6667 27.8933 64.6427 27.202 66.066 27.202H75.399C75.887 27.202 76.131 27.446 76.131 27.934V31.045C76.131 31.533 75.887 31.777 75.399 31.777H70.702V66.425H75.399C75.887 66.425 76.131 66.669 76.131 67.157V70.268C76.131 70.756 75.887 71 75.399 71ZM92.1769 70.329C91.5262 70.329 90.9975 69.8207 90.5909 68.804L81.2579 45.075H77.9029C77.4149 45.075 77.1709 44.831 77.1709 44.343V41.72C77.1709 41.232 77.4149 40.988 77.9029 40.988H88.9439C89.4725 40.988 89.7369 41.232 89.7369 41.72V44.343C89.7369 44.831 89.4725 45.075 88.9439 45.075H86.4429L94.3119 65.754H94.4339L101.754 45.075H99.0089C98.5209 45.075 98.2769 44.831 98.2769 44.343V41.72C98.2769 41.232 98.5209 40.988 99.0089 40.988H110.355C110.843 40.988 111.087 41.232 111.087 41.72V44.343C111.087 44.831 110.843 45.075 110.355 45.075H106.939L96.0809 74.904C94.7389 78.5233 93.3359 81.1463 91.8719 82.773C90.4485 84.4403 88.4762 85.274 85.9549 85.274C83.4742 85.274 81.3392 84.481 79.5499 82.895C79.1432 82.4883 79.0822 82.1223 79.3669 81.797L80.8919 79.845C81.2579 79.5603 81.6239 79.54 81.9899 79.784C82.9659 80.5567 84.1249 80.943 85.4669 80.943C86.8089 80.943 87.9069 80.4753 88.7609 79.54C89.6555 78.6453 90.5095 77.0797 91.3229 74.843L92.9699 70.329H92.1769Z" fill="#24ABF6"/>
<path d="M154.137 72H150.721C150.192 72 149.928 71.756 149.928 71.268V56.994C149.928 56.4653 150.192 56.201 150.721 56.201H154.564C155.052 56.201 155.296 56.4653 155.296 56.994V58.275C155.296 59.0477 155.764 60.0847 156.699 61.386C157.634 62.6467 158.57 63.6837 159.505 64.497C160.44 65.3103 161.681 66.022 163.226 66.632C164.812 67.2013 166.52 67.486 168.35 67.486C171.481 67.486 173.921 66.8353 175.67 65.534C177.459 64.2327 178.354 62.423 178.354 60.105C178.354 58.763 177.846 57.6243 176.829 56.689C175.853 55.713 174.572 54.9403 172.986 54.371C171.4 53.8017 169.631 53.273 167.679 52.785C165.768 52.297 163.836 51.748 161.884 51.138C159.973 50.4873 158.224 49.735 156.638 48.881C155.052 47.9863 153.751 46.7663 152.734 45.221C151.758 43.635 151.27 41.7847 151.27 39.67C151.27 36.254 152.551 33.4277 155.113 31.191C157.716 28.9543 161.193 27.836 165.544 27.836C171.034 27.836 175.06 29.4423 177.622 32.655L177.5 28.873C177.5 28.385 177.764 28.141 178.293 28.141H181.709C182.197 28.141 182.441 28.385 182.441 28.873V42.171C182.441 42.659 182.197 42.903 181.709 42.903H177.866C177.378 42.903 177.134 42.659 177.134 42.171V40.463C177.134 38.7957 176.199 37.108 174.328 35.4C172.457 33.692 169.712 32.838 166.093 32.838C163.409 32.838 161.233 33.4887 159.566 34.79C157.939 36.0507 157.126 37.6773 157.126 39.67C157.126 41.0933 157.634 42.3133 158.651 43.33C159.668 44.3467 160.989 45.16 162.616 45.77C164.243 46.38 166.032 46.9493 167.984 47.478C169.936 47.966 171.888 48.515 173.84 49.125C175.792 49.735 177.581 50.467 179.208 51.321C180.835 52.175 182.156 53.3543 183.173 54.859C184.19 56.323 184.698 58.0717 184.698 60.105C184.698 63.6837 183.417 66.632 180.855 68.95C178.293 71.268 174.47 72.427 169.387 72.427C165.646 72.427 162.555 71.6747 160.115 70.17C157.675 68.6653 155.906 67.0387 154.808 65.29L154.869 71.268C154.869 71.756 154.625 72 154.137 72ZM215.159 68.157C212.313 71.0037 208.673 72.427 204.24 72.427C199.808 72.427 196.168 71.024 193.321 68.218C190.475 65.3713 189.051 61.6097 189.051 56.933C189.051 52.2157 190.495 48.4743 193.382 45.709C196.27 42.9437 199.889 41.561 204.24 41.561C208.632 41.561 212.252 42.964 215.098 45.77C217.986 48.5353 219.429 52.2563 219.429 56.933C219.429 61.569 218.006 65.3103 215.159 68.157ZM194.175 56.933C194.175 60.2677 195.151 62.972 197.103 65.046C199.055 67.12 201.434 68.157 204.24 68.157C207.087 68.157 209.486 67.12 211.438 65.046C213.39 62.972 214.366 60.2677 214.366 56.933C214.366 53.5983 213.37 50.9143 211.377 48.881C209.425 46.8477 207.067 45.831 204.301 45.831C201.536 45.831 199.157 46.8477 197.164 48.881C195.172 50.9143 194.175 53.5983 194.175 56.933ZM251.656 64.924C251.9 65.1273 252.022 65.3307 252.022 65.534C252.022 65.6967 251.921 65.9407 251.717 66.266C251.555 66.5507 251.168 66.998 250.558 67.608C249.989 68.218 249.176 68.9093 248.118 69.682C247.102 70.4547 245.76 71.1053 244.092 71.634C242.466 72.1627 240.717 72.427 238.846 72.427C234.576 72.427 230.998 71.024 228.11 68.218C225.264 65.412 223.84 61.6503 223.84 56.933C223.84 52.175 225.264 48.4337 228.11 45.709C230.998 42.9437 234.515 41.561 238.663 41.561C242.811 41.561 245.943 43.0657 248.057 46.075H248.118L248.057 42.72C248.057 42.1913 248.322 41.927 248.85 41.927H251.168C251.656 41.927 251.9 42.1913 251.9 42.72V53.09C251.9 53.578 251.656 53.822 251.168 53.822H248.362C247.874 53.822 247.63 53.578 247.63 53.09V52.053C247.59 50.589 246.756 49.186 245.129 47.844C243.503 46.502 241.429 45.831 238.907 45.831C236.427 45.831 234.149 46.8273 232.075 48.82C230.001 50.8127 228.964 53.5373 228.964 56.994C228.964 60.41 229.981 63.1347 232.014 65.168C234.048 67.1607 236.325 68.157 238.846 68.157C241.368 68.157 243.503 67.6283 245.251 66.571C247.041 65.473 248.24 64.4157 248.85 63.399C249.135 62.911 249.481 62.85 249.887 63.216L251.656 64.924ZM269.406 72H257.755C257.226 72 256.962 71.756 256.962 71.268V68.645C256.962 68.157 257.226 67.913 257.755 67.913H261.11V46.075H257.755C257.226 46.075 256.962 45.831 256.962 45.343V42.72C256.962 42.232 257.226 41.988 257.755 41.988H265.441C265.929 41.988 266.173 42.232 266.173 42.72V67.913H269.406C269.934 67.913 270.199 68.157 270.199 68.645V71.268C270.199 71.756 269.934 72 269.406 72ZM265.929 32.96C266.62 33.6513 266.966 34.4647 266.966 35.4C266.966 36.3353 266.62 37.1283 265.929 37.779C265.278 38.4297 264.485 38.755 263.55 38.755C262.614 38.755 261.801 38.4297 261.11 37.779C260.459 37.1283 260.134 36.3353 260.134 35.4C260.134 34.4647 260.459 33.6513 261.11 32.96C261.801 32.2687 262.614 31.923 263.55 31.923C264.485 31.923 265.278 32.2687 265.929 32.96ZM304.784 72H299.477C297.728 72 296.854 71.146 296.854 69.438V66.327H296.732C293.763 70.4343 289.798 72.488 284.837 72.488C281.909 72.488 279.509 71.7357 277.639 70.231C275.768 68.6857 274.833 66.6117 274.833 64.009C274.833 60.6743 276.276 58.2343 279.164 56.689C282.092 55.103 286.097 54.31 291.181 54.31H296.305V53.578C296.305 48.4947 293.661 45.953 288.375 45.953C285.894 45.953 284.105 46.197 283.007 46.685C281.909 47.1323 281.116 47.4983 280.628 47.783C280.18 48.0677 279.835 48.2913 279.591 48.454C278.981 48.942 278.533 48.9827 278.249 48.576L276.541 46.441C276.256 46.1157 276.297 45.7903 276.663 45.465C277.354 44.5703 278.777 43.696 280.933 42.842C283.088 41.988 285.63 41.561 288.558 41.561C297.098 41.561 301.368 45.6277 301.368 53.761V67.913H304.784C305.272 67.913 305.516 68.157 305.516 68.645V71.268C305.516 71.756 305.272 72 304.784 72ZM296.305 57.97H291.486C289.127 57.97 287.175 58.092 285.63 58.336C284.084 58.58 282.763 59.1087 281.665 59.922C280.607 60.7353 280.079 61.8537 280.079 63.277C280.079 64.7003 280.648 65.8797 281.787 66.815C282.966 67.7097 284.491 68.157 286.362 68.157C290.306 68.157 293.621 66.4083 296.305 62.911V57.97ZM322.304 72H310.653C310.124 72 309.86 71.756 309.86 71.268V68.645C309.86 68.157 310.124 67.913 310.653 67.913H314.008V32.289H310.653C310.124 32.289 309.86 32.045 309.86 31.557V28.934C309.86 28.446 310.124 28.202 310.653 28.202H317.424C318.522 28.202 319.071 28.7103 319.071 29.727V67.913H322.304C322.833 67.913 323.097 68.157 323.097 68.645V71.268C323.097 71.756 322.833 72 322.304 72Z" fill="white"/>
</svg>
